# xmcd
#
# Track frame offsets: 
#        150
#        21507
#        41975
#        61485
#        80027
#        102297
#        126850
#        145717
#        167932
#        187977
#        204360
#        219760
#        239440
#
# Disc length: 3384 seconds
#
# Revision: 2
# Processed by: cddbd v1.5.2PL0 Copyright (c) Steve Scherf et al.
# Submitted via: ExactAudioCopyFreeDBPlugin 1.0
#
DISCID=bc0d360d
DTITLE=Johnnie Taylor - Taylored To Please
DYEAR=1998
DGENRE=Blues
TTITLE0=Groove Me
TTITLE1=Cheatin On Me
TTITLE2=I'm not The Man You Need
TTITLE3=Disco Lady, 2000
TTITLE4=If You Take Your Love Away
TTITLE5=You Couldn't Break Me
TTITLE6=Kickin' Back, Chillin' Out
TTITLE7=What Goods Is A Man
TTITLE8=Loose Hair In The Bathroom
TTITLE9=Can't Live With You
TTITLE10=You Can't Strike Gold In A Silver Mine
TTITLE11=Throw Your Hands In The Air
TTITLE12=Disco Lady, 2000 Radio Slam (Remix)
EXTD=YEAR: 1998  ID3G:  17
EXTT0=
EXTT1=
EXTT2=
EXTT3=
EXTT4=
EXTT5=
EXTT6=
EXTT7=
EXTT8=
EXTT9=
EXTT10=
EXTT11=
EXTT12=
PLAYORDER=
